#!OML:ASF H:\Terrain\Patient Classification 1\Animal2\Wednesday\Animal2.ASF
:FULLY-SPECIFIED
:DEGREES
2506
root 14.1127 15.7467 -14.6868 4.04521 -12.3552 0.861565
lowerback 11.4424 0.044544 2.61726
upperback -5.57713 0.498979 0.0249599
thorax -12.5397 0.017727 -1.55862
lowerneck 8.11638 6.89928 13.733
upperneck -29.449 6.21828 -23.4752
head -8.9164 4.0264 -11.6451
rclavicle -1.35795e-014 3.18055e-015
rhumerus 68.568 -40.0491 -19.4191
rradius 62.4693
rwrist -6.06815
rhand -18.4324 18.7784
rfingers 7.12502
rthumb 7.85305 -11.0557
lclavicle -1.35795e-014 3.18055e-015
lhumerus 41.8786 44.2203 -7.91219
lradius 71.9867
lwrist 36.7102
lhand -27.5232 18.8065
lfingers 7.12502
lthumb -0.925363 48.7842
rfemur -0.330029 5.10315 13.2708
rtibia 45.6043
rfoot -42.312 -16.2602
rtoes -23.7358
lfemur -42.6491 -5.29376 -3.98561
ltibia 60.2138
lfoot -22.2865 -9.07513
ltoes -24.207
2507
root 14.1093 15.723 -14.7106 3.89959 -12.6638 1.07878
lowerback 11.6487 -0.0168168 2.39475
upperback -5.44189 0.382343 0.0206168
thorax -12.5156 -0.0175872 -1.41328
lowerneck 7.96324 7.04498 13.8204
upperneck -29.4839 6.40186 -23.5662
head -8.84335 4.10767 -11.6878
rclavicle 8.82107e-015 0
rhumerus 68.5082 -40.2256 -19.7202
rradius 62.7432
rwrist -6.10536
rhand -19.0624 18.7294
rfingers 7.12502
rthumb 7.24493 -11.1266
lclavicle 8.82107e-015 0
lhumerus 41.6671 44.4413 -8.03333
lradius 72.324
lwrist 36.7363
lhand -27.9851 18.6091
lfingers 7.12502
lthumb -1.37148 48.5844
rfemur -0.743586 5.28721 12.9871
rtibia 46.4331
rfoot -42.4728 -16.2504
rtoes -23.7239
lfemur -42.6741 -5.26476 -4.13941
ltibia 60.4895
lfoot -22.1237 -9.40809
ltoes -22.4141
2508
root 14.1046 15.7015 -14.7353 3.79915 -12.976 1.2871
lowerback 11.8289 -0.0627666 2.12412
upperback -5.30994 0.281576 0.0562749
thorax -12.478 -0.0394732 -1.19981
lowerneck 7.70807 7.1328 14.0027
upperneck -29.4057 6.47837 -23.8311
head -8.71801 4.14255 -11.7958
rclavicle -1.53561e-014 -4.77083e-015
rhumerus 68.5002 -40.4767 -19.7997
rradius 62.9431
rwrist -6.19454
rhand -19.5884 18.6584
rfingers 7.12502
rthumb 6.73714 -11.2144
lclavicle -1.53561e-014 -4.77083e-015
lhumerus 41.497 44.6854 -8.17706
lradius 72.4932
lwrist 36.8356
lhand -28.1548 18.3152
lfingers 7.12502
lthumb -1.5354 48.2894
rfemur -1.15177 5.44406 12.7179
rtibia 47.1507
rfoot -42.5801 -16.4045
rtoes -24.5577
lfemur -42.7263 -5.13938 -4.2991
ltibia 60.7142
lfoot -22.1249 -9.28609
ltoes -23.0625
2509
root 14.1001 15.6733 -14.7613 3.7417 -13.1597 1.28931
lowerback 12.066 -0.0631009 2.10675
upperback -5.33464 0.286065 0.0688225
thorax -12.6511 -0.0375265 -1.17849
lowerneck 8.11718 7.03887 14.2634
upperneck -29.5324 6.38627 -24.0005
head -8.84082 4.10334 -11.9635
rclavicle 5.82688e-015 -3.57812e-015
rhumerus 67.9249 -40.5139 -19.4244
rradius 63.1908
rwrist -6.35233
rhand -20.2023 18.2697
rfingers 7.12502
rthumb 6.14453 -11.6212
lclavicle 5.82688e-015 -3.57812e-015
lhumerus 42.0328 44.5956 -7.44187
lradius 72.6841
lwrist 36.4988
lhand -28.1448 18.0463
lfingers 7.12502
lthumb -1.52579 48.0206
rfemur -1.48073 5.53704 12.7317
rtibia 47.7408
rfoot -42.6865 -16.642
rtoes -25.0999
lfemur -42.827 -5.08472 -4.21092
ltibia 60.8989
lfoot -22.332 -8.4672
ltoes -26.1586
2510
root 14.0953 15.6578 -14.7811 3.64457 -13.3331 1.56164
lowerback 12.2257 -0.0694871 1.87018
upperback -5.37007 0.233866 0.0148105
thorax -12.791 -0.0471814 -1.09319
lowerneck 8.54291 6.97083 14.3187
upperneck -29.7317 6.33723 -23.9514
head -9.0093 4.08229 -12.0156
rclavicle -3.52843e-014 -1.11319e-014
rhumerus 67.564 -40.3745 -19.4466
rradius 63.4763
rwrist -6.12165
rhand -20.696 17.923
rfingers 7.12502
rthumb 5.66783 -11.9812
lclavicle -3.52843e-014 -1.11319e-014
lhumerus 42.4476 44.4499 -6.80515
lradius 72.9266
lwrist 36.0759
lhand -28.5379 17.5634
lfingers 7.12502
lthumb -1.90539 47.5346
rfemur -1.77611 5.55056 12.4314
rtibia 48.1994
rfoot -42.9538 -16.703
rtoes -24.7237
lfemur -42.8371 -5.14973 -4.43347
ltibia 60.9882
lfoot -22.4775 -7.75181
ltoes -28.6097
2511
root 14.0896 15.6604 -14.7956 3.59542 -13.6179 1.96381
lowerback 12.2037 -0.0914428 1.47116
upperback -5.27483 0.129398 -0.0132678
thorax -12.6702 -0.062953 -0.874557
lowerneck 8.54734 7.03023 14.1377
upperneck -29.9583 6.38262 -23.8447
head -9.09537 4.10772 -11.9674
rclavicle -2.68484e-014 -9.93923e-015
rhumerus 67.6744 -40.4385 -19.7648
rradius 63.7326
rwrist -5.89859
rhand -21.0071 17.7579
rfingers 7.12502
rthumb 5.36754 -12.1541
lclavicle -2.68484e-014 -9.93923e-015
lhumerus 42.4589 44.7174 -6.87886
lradius 72.8892
lwrist 36.0668
lhand -29.1672 17.1604
lfingers 7.12502
lthumb -2.51323 47.1253
rfemur -2.15149 5.63203 11.9508
rtibia 48.5171
rfoot -43.359 -16.3541
rtoes -23.0753
lfemur -42.8015 -5.18772 -4.81661
ltibia 60.9756
lfoot -22.4286 -7.39783
ltoes -29.4206
2512
root 14.0854 15.6596 -14.8103 3.60498 -13.8145 1.9446
lowerback 12.1789 -0.155892 1.51107
upperback -5.14599 0.0521925 0.0223418
thorax -12.5091 -0.0986755 -0.840262
lowerneck 8.58348 7.09521 14.2694
upperneck -30.208 6.44483 -23.9831
head -9.1582 4.13585 -12.0833
rclavicle 6.54747e-015 6.36111e-015
rhumerus 67.6638 -40.7288 -19.7673
rradius 63.8317
rwrist -5.96855
rhand -21.509 17.4535
rfingers 7.12502
rthumb 4.88292 -12.4702
lclavicle 6.54747e-015 6.36111e-015
lhumerus 42.703 45.0032 -6.69867
lradius 72.7172
lwrist 35.9224
lhand -29.472 17.0724
lfingers 7.12502
lthumb -2.80759 47.0336
rfemur -2.36041 5.71047 11.9747
rtibia 48.6735
rfoot -43.7722 -15.981
rtoes -21.5204
lfemur -42.7855 -5.20156 -4.71939
ltibia 60.957
lfoot -22.2924 -7.31096
ltoes -29.1184
2513
root 14.0837 15.6514 -14.8254 3.55567 -13.8386 1.89854
lowerback 12.237 -0.336328 1.64627
upperback -5.08096 -0.157847 0.101342
thorax -12.4762 -0.204004 -0.782161
lowerneck 8.95485 7.16879 14.368
upperneck -30.5844 6.5173 -24.2052
head -9.3284 4.19165 -12.2743
rclavicle 9.15652e-015 1.74931e-014
rhumerus 67.8952 -40.7727 -19.9365
rradius 63.8517
rwrist -5.78645
rhand -22.188 17.2825
rfingers 7.12502
rthumb 4.2272 -12.6553
lclavicle 9.15652e-015 1.74931e-014
lhumerus 42.5534 44.9358 -6.62295
lradius 72.6809
lwrist 35.6381
lhand -29.7138 16.9209
lfingers 7.12502
lthumb -3.04107 46.879
rfemur -2.32591 5.69714 12.0936
rtibia 48.6832
rfoot -43.9634 -16.3032
rtoes -21.7225
lfemur -42.7785 -5.31966 -4.58566
ltibia 60.9466
lfoot -22.2942 -7.11492
ltoes -29.5067
2514
root 14.0816 15.6467 -14.8389 3.54794 -14.0137 1.98367
lowerback 12.2118 -0.330747 1.68215
upperback -4.9922 -0.1521 0.0422462
thorax -12.3594 -0.205715 -0.868823
lowerneck 8.83887 7.16342 14.563
upperneck -30.7277 6.48911 -24.3275
head -9.34239 4.16304 -12.3712
rclavicle -2.57488e-014 -4.37326e-015
rhumerus 67.7077 -40.9463 -19.8095
rradius 63.8953
rwrist -5.48193
rhand -22.8469 17.2527
rfingers 7.12502
rthumb 3.59093 -12.6968
lclavicle -2.57488e-014 -4.37326e-015
lhumerus 42.9146 45.0215 -6.20195
lradius 72.5895
lwrist 35.43
lhand -30.065 16.7372
lfingers 7.12502
lthumb -3.38022 46.6902
rfemur -2.32879 5.87416 12.0633
rtibia 48.5744
rfoot -44.0501 -16.7594
rtoes -22.5741
lfemur -42.7753 -5.30877 -4.60633
ltibia 60.906
lfoot -22.4316 -6.61412
ltoes -30.8602
2515
root 14.0765 15.6534 -14.8475 3.61051 -14.3963 2.08592
lowerback 12.0987 -0.0865838 1.67848
upperback -4.89466 0.149014 -0.172117
thorax -12.1698 -0.0714864 -1.16921
lowerneck 8.20031 7.05222 15.2035
upperneck -30.4835 6.36954 -24.4966
head -9.10711 4.03438 -12.4751
rclavicle 6.29899e-015 -9.93923e-015
rhumerus 66.7802 -41.3745 -19.0482
rradius 63.9108
rwrist -5.43452
rhand -23.3512 17.1392
rfingers 7.12502
rthumb 3.10393 -12.818
lclavicle 6.29899e-015 -9.93923e-015
lhumerus 44.3206 45.2177 -4.85387
lradius 72.435
lwrist 34.9015
lhand -30.3604 16.8322
lfingers 7.12502
lthumb -3.66553 46.7804
rfemur -2.42982 6.22625 11.9587
rtibia 48.377
rfoot -44.3069 -16.2566
rtoes -21.6049
lfemur -42.7171 -5.11384 -4.65805
ltibia 60.791
lfoot -22.6429 -6.09041
ltoes -32.5289
2516
root 14.0699 15.6731 -14.8527 3.64619 -14.6716 2.29848
lowerback 12.0432 0.0312172 1.49461
upperback -4.90667 0.264746 -0.265271
thorax -12.1455 -0.00674289 -1.19285
lowerneck 8.06042 6.96535 15.6028
upperneck -30.4131 6.26945 -24.6811
head -9.04458 3.95782 -12.608
rclavicle -1.47225e-015 7.95139e-016
rhumerus 66.3626 -41.4494 -18.6188
rradius 63.8706
rwrist -5.46036
rhand -23.6588 17.1318
rfingers 7.12502
rthumb 2.80688 -12.8295
lclavicle -1.47225e-015 7.95139e-016
lhumerus 45.0292 45.0881 -3.98046
lradius 72.347
lwrist 34.5252
lhand -31.0351 16.8047
lfingers 7.12502
lthumb -4.31701 46.7407
rfemur -2.51964 6.52816 11.767
rtibia 48.1129
rfoot -44.614 -15.6758
rtoes -19.7101
lfemur -42.6304 -5.04767 -4.82228
ltibia 60.569
lfoot -22.7305 -5.8358
ltoes -33.4674
2517
root 14.0641 15.6929 -14.858 3.7474 -14.8733 2.29123
lowerback 11.9882 -0.0719133 1.52123
upperback -5.02125 0.146686 -0.116893
thorax -12.2472 -0.0590652 -1.01924
lowerneck 8.57034 6.95796 15.3819
upperneck -30.6577 6.23949 -24.7123
head -9.25298 3.98385 -12.6573
rclavicle 1.93939e-014 -9.54166e-015
rhumerus 66.7803 -41.1739 -18.7651
rradius 63.7799
rwrist -5.44588
rhand -24.1103 17.0573
rfingers 7.12502
rthumb 2.37087 -12.9092
lclavicle 1.93939e-014 -9.54166e-015
lhumerus 44.4801 44.8228 -4.35941
lradius 72.2208
lwrist 34.7324
lhand -31.9388 16.6385
lfingers 7.12502
lthumb -5.1896 46.555
rfemur -2.59188 6.83756 11.8816
rtibia 47.7907
rfoot -44.5533 -16.3687
rtoes -20.2401
lfemur -42.5433 -5.01123 -4.72996
ltibia 60.2915
lfoot -22.65 -5.63944
ltoes -34.2649
